<svg width="180" height="180" viewBox="0 0 180 180" fill="none" xmlns="http://www.w3.org/2000/svg">
<path d="M134.087 40L126.054 129.99L89.946 140L53.937 130.004L45.9125 40H134.087Z" fill="#264DE4"/>
<path d="M119.177 124.259L126.042 47.3591H90V132.348L119.177 124.259Z" fill="#2965F1"/>
<path d="M64.3084 80.7402L65.2978 91.7787H90V80.7402H64.3084Z" fill="#EBEBEB"/>
<path d="M90 58.3977H89.9619H62.3205L63.3239 69.4364H90V58.3977Z" fill="#EBEBEB"/>
<path d="M90 120.893V109.408L89.9516 109.421L77.6579 106.102L76.872 97.2979H70.8982H65.791L67.3375 114.63L89.9492 120.907L90 120.893Z" fill="#EBEBEB"/>
<path d="M103.555 91.7785L102.273 106.095L89.9619 109.418V120.902L112.592 114.63L112.758 112.765L115.352 83.7042L115.621 80.7401L117.614 58.3977H89.9619V69.4364H105.516L104.512 80.7401H89.9619V91.7785H103.555Z" fill="white"/>
</svg>
