<svg width="140" height="140" viewBox="0 0 140 140" fill="none" xmlns="http://www.w3.org/2000/svg">
<g filter="url(#filter0_d_8_61)">
<path d="M57.0371 108.889C64.1926 108.889 70 103.081 70 95.926V82.963H57.0371C49.8815 82.963 44.0741 88.7704 44.0741 95.926C44.0741 103.081 49.8815 108.889 57.0371 108.889Z" fill="#0ACF83"/>
<path d="M44.0741 69.9999C44.0741 62.8444 49.8815 57.037 57.0371 57.037H70V82.9629H57.0371C49.8815 82.9629 44.0741 77.1555 44.0741 69.9999Z" fill="#A259FF"/>
<path d="M44.0741 44.074C44.0741 36.9185 49.8815 31.1111 57.0371 31.1111H70V57.037H57.0371C49.8815 57.037 44.0741 51.2296 44.0741 44.074Z" fill="#F24E1E"/>
<path d="M70 31.1111H82.963C90.1186 31.1111 95.926 36.9185 95.926 44.074C95.926 51.2296 90.1186 57.037 82.963 57.037H70V31.1111Z" fill="#FF7262"/>
<path d="M95.926 69.9999C95.926 77.1555 90.1186 82.9629 82.963 82.9629C75.8074 82.9629 70 77.1555 70 69.9999C70 62.8444 75.8074 57.037 82.963 57.037C90.1186 57.037 95.926 62.8444 95.926 69.9999Z" fill="#1ABCFE"/>
</g>
<defs>
<filter id="filter0_d_8_61" x="-4" y="0" width="148" height="148" filterUnits="userSpaceOnUse" color-interpolation-filters="sRGB">
<feFlood flood-opacity="0" result="BackgroundImageFix"/>
<feColorMatrix in="SourceAlpha" type="matrix" values="0 0 0 0 0 0 0 0 0 0 0 0 0 0 0 0 0 0 127 0" result="hardAlpha"/>
<feOffset dy="4"/>
<feGaussianBlur stdDeviation="2"/>
<feComposite in2="hardAlpha" operator="out"/>
<feColorMatrix type="matrix" values="0 0 0 0 0 0 0 0 0 0 0 0 0 0 0 0 0 0 0.25 0"/>
<feBlend mode="normal" in2="BackgroundImageFix" result="effect1_dropShadow_8_61"/>
<feBlend mode="normal" in="SourceGraphic" in2="effect1_dropShadow_8_61" result="shape"/>
</filter>
</defs>
</svg>
