<svg width="180" height="180" viewBox="0 0 180 180" fill="none" xmlns="http://www.w3.org/2000/svg">
<path d="M140 40H40V140H140V40Z" fill="#F7DF1E"/>
<path d="M107.175 118.125C109.189 121.414 111.81 123.832 116.444 123.832C120.338 123.832 122.825 121.886 122.825 119.197C122.825 115.975 120.27 114.833 115.984 112.959L113.635 111.951C106.854 109.062 102.349 105.443 102.349 97.7921C102.349 90.7445 107.719 85.3794 116.111 85.3794C122.086 85.3794 126.381 87.4588 129.476 92.9032L122.159 97.6016C120.548 94.7127 118.81 93.5746 116.111 93.5746C113.359 93.5746 111.614 95.3207 111.614 97.6016C111.614 100.421 113.36 101.562 117.392 103.308L119.741 104.314C127.725 107.738 132.233 111.229 132.233 119.076C132.233 127.537 125.587 132.171 116.662 132.171C107.935 132.171 102.297 128.013 99.5381 122.562L107.175 118.125ZM73.9793 118.94C75.4555 121.559 76.7984 123.773 80.027 123.773C83.1143 123.773 85.0619 122.565 85.0619 117.868V85.9159H94.4587V117.995C94.4587 127.725 88.7539 132.154 80.427 132.154C72.9032 132.154 68.546 128.26 66.3301 123.571L73.9793 118.94Z" fill="black"/>
</svg>
