<svg width="180" height="180" viewBox="0 0 180 180" fill="none" xmlns="http://www.w3.org/2000/svg">
<path d="M85.9057 41.0669C88.3852 39.6476 91.6148 39.6412 94.0922 41.0669C106.556 48.1094 119.023 55.141 131.485 62.1878C133.829 63.5081 135.396 66.1166 135.373 68.8173V111.188C135.39 114.001 133.667 116.671 131.195 117.962C118.772 124.966 106.356 131.978 93.9352 138.982C91.4044 140.429 88.1099 140.317 85.6582 138.752C81.9339 136.593 78.2032 134.444 74.4785 132.287C73.7174 131.834 72.8594 131.473 72.322 130.735C72.7971 130.094 73.6465 130.014 74.3368 129.735C75.8914 129.24 77.3192 128.447 78.7474 127.677C79.1085 127.43 79.5494 127.525 79.8956 127.746C83.0803 129.572 86.2369 131.451 89.4323 133.259C90.114 133.653 90.8042 133.13 91.3869 132.806C103.577 125.916 115.783 119.052 127.971 112.16C128.423 111.943 128.672 111.463 128.636 110.969C128.644 96.9915 128.638 83.0118 128.64 69.0345C128.691 68.4732 128.367 67.9572 127.859 67.7274C115.48 60.7557 103.106 53.7733 90.7291 46.7999C90.5146 46.6524 90.2606 46.5733 90.0004 46.5729C89.7401 46.5726 89.4859 46.6509 89.271 46.7977C76.8936 53.7733 64.5226 60.7621 52.1452 67.7335C51.6395 67.9636 51.3 68.4711 51.3602 69.0345C51.3624 83.0118 51.3602 96.9915 51.3602 110.971C51.3388 111.212 51.3918 111.454 51.5121 111.665C51.6325 111.875 51.8144 112.043 52.0334 112.147C55.3363 114.02 58.6436 115.88 61.9487 117.747C63.8106 118.749 66.0968 119.344 68.1482 118.577C69.9586 117.927 71.2275 116.08 71.193 114.158C71.2101 100.262 71.1844 86.3642 71.2058 72.4707C71.1606 71.8538 71.7457 71.3442 72.3455 71.4022C73.9325 71.3916 75.5217 71.3809 77.1087 71.4065C77.7711 71.3916 78.227 72.0558 78.1451 72.6773C78.1387 86.6609 78.1622 100.645 78.1344 114.629C78.1387 118.355 76.6076 122.411 73.1604 124.234C68.9136 126.434 63.6646 125.967 59.4691 123.858C55.8371 122.045 52.371 119.906 48.8034 117.964C46.3242 116.68 44.6101 113.999 44.6275 111.188V68.8173C44.6015 66.0606 46.2316 63.4048 48.6485 62.1038C61.069 55.0943 73.4873 48.0795 85.9057 41.0669Z" fill="#8CC84B"/>
<path d="M96.7413 70.4174C102.158 70.0687 107.958 70.2108 112.832 72.8795C116.606 74.9245 118.699 79.2165 118.765 83.4095C118.66 83.9751 118.069 84.2871 117.529 84.2483C115.957 84.2461 114.385 84.2696 112.813 84.2376C112.147 84.2632 111.759 83.6485 111.676 83.0591C111.224 81.0529 110.13 79.0659 108.241 78.0982C105.343 76.6469 101.982 76.7199 98.8209 76.7502C96.5134 76.8727 94.032 77.0725 92.0771 78.4294C90.5763 79.4573 90.1204 81.5322 90.6561 83.2033C91.1611 84.4032 92.5462 84.7903 93.6794 85.1472C100.208 86.8546 107.126 86.6847 113.529 88.9317C116.181 89.8477 118.774 91.6285 119.682 94.4043C120.869 98.1247 120.348 102.572 117.701 105.558C115.555 108.016 112.428 109.354 109.31 110.08C105.162 111.005 100.857 111.029 96.6448 110.618C92.6836 110.167 88.5615 109.126 85.5036 106.427C82.8887 104.157 81.6115 100.619 81.7383 97.2044C81.7686 96.6278 82.3427 96.2257 82.8951 96.2731C84.4779 96.2603 86.0606 96.256 87.6434 96.2752C88.2755 96.23 88.7442 96.7763 88.7766 97.3722C89.0687 99.2837 89.787 101.29 91.4538 102.423C94.6706 104.498 98.7069 104.356 102.39 104.414C105.442 104.279 108.867 104.238 111.357 102.221C112.671 101.071 113.061 99.1462 112.706 97.4904C112.321 96.0925 110.859 95.4411 109.603 95.0151C103.158 92.9765 96.1629 93.7163 89.7806 91.4109C87.1896 90.4952 84.6841 88.7639 83.6886 86.1021C82.2996 82.3347 82.9361 77.6747 85.8605 74.7888C88.7118 71.9182 92.8279 70.8127 96.7413 70.4171V70.4174Z" fill="#8CC84B"/>
</svg>
